<?xml version="1.0" encoding="utf-8"?>
<!-- Generator: Adobe Illustrator 19.2.0, SVG Export Plug-In . SVG Version: 6.00 Build 0)  -->
<svg version="1.1" id="Layer_1" xmlns="http://www.w3.org/2000/svg" xmlns:xlink="http://www.w3.org/1999/xlink" x="0px" y="0px"
	 viewBox="0 0 500 178" style="enable-background:new 0 0 500 178;" xml:space="preserve">
<style type="text/css">
	.st0{fill:#1D3D8F;}
	.st1{fill:#FFFFFF;}
	.st2{fill:#EC671D;}
</style>
<g>
	<rect x="16.8" class="st0" width="179.2" height="178"/>
	<path class="st1" d="M38.8,107.6L38.8,107.6L38.8,107.6z"/>
	<g>
		<path class="st1" d="M84.6,100.5v-0.7C84.6,100,84.6,100.3,84.6,100.5"/>
		<path class="st1" d="M177.1,84.6c6.1-2.9,9.2-9.4,9.2-15.9c0-7.8-4.9-15.3-11.8-18.8c-7-3.5-14.7-3.2-22.3-3.2l-19.4,0l0,83.5H158
			c8-0.2,16.5-0.7,23.2-5.5c6.5-4.9,10.2-11.8,10.2-19.9C191.4,95.3,186.3,87.5,177.1,84.6 M148.3,61.7l7.1,0
			c3.3,0,7.9-0.2,10.2,0.8c3.1,1.2,5.2,4,5.2,7.3c0,3.2-1.8,6.3-4.8,7.7c-2.9,1.4-7.2,1.2-10.5,1.2l-7.2,0V61.7z M171.8,112.3
			c-4.1,2.7-8.3,2.9-12.8,2.9l-10.7,0V93.9l11,0c3.7,0,7.5-0.1,11,1.7c3.6,2,5.5,4.5,5.5,8.6C175.9,107.7,174.6,110.4,171.8,112.3"
			/>
		<polygon class="st2" points="0,46.7 16.8,91.1 16.8,46.7 		"/>
		<polygon class="st0" points="226.5,24.4 230.1,24.4 241.7,53.4 253.5,24.4 257.1,24.4 243.3,57.5 240.2,57.5 		"/>
		<path class="st0" d="M262.2,24.4h7.9c3.1,0,6.6,0,9.4,1.6c3.4,1.9,5.2,5.3,5.2,9.2c0,5.4-4.4,9.8-9.8,9.9l9.3,12.4h-4.1l-11.3-15
			h1c2.3,0,5,0.1,7.2-0.9c2.7-1.3,4.3-3.8,4.3-6.7c0-2.3-1.2-4.6-3.1-5.9c-2.2-1.6-4.9-1.6-7.5-1.6h-5.2v30.1h-3.3V24.4z"/>
		<rect x="290.7" y="24.4" class="st0" width="3.3" height="33.1"/>
		<path class="st0" d="M316.9,48.2c-0.2,2.6,0,4.5-1.8,6.6c-1.8,2.2-4.4,3.3-7.1,3.3c-4.8,0-8.7-3.6-8.8-8.4h3.3
			c0.2,3.1,2.7,5.2,5.9,5.2c2.2,0,4.1-1.3,4.8-3.3c0.4-1.3,0.4-3,0.4-4.4V24.4h3.3V48.2z"/>
		<polygon class="st0" points="325,24.4 343.1,24.4 343.1,27.4 328.3,27.4 328.3,39.3 342.6,39.3 342.6,42.3 328.3,42.3 328.3,54.5 
			343.1,54.5 343.1,57.5 325,57.5 		"/>
		<path class="st0" d="M232.8,71.9V92c0,2.4,0.2,4.9,1.5,6.9c1.4,2.2,3.9,3.5,6.5,3.5c2.3,0,4.7-1.1,6.1-3c1.6-2.1,1.8-4.8,1.8-7.4
			V71.9h3.3V92c0,3.4-0.3,6.6-2.5,9.4c-2.1,2.7-5.4,4.2-8.8,4.2c-3.3,0-6.6-1.4-8.7-3.9c-2.3-2.8-2.6-6.1-2.6-9.6V71.9H232.8z"/>
		<polygon class="st0" points="260.1,71.9 264.6,71.9 283.2,99.4 283.2,71.9 286.5,71.9 286.5,105 283.2,105 263.4,75.9 263.4,105 
			260.1,105 		"/>
		<rect x="294.6" y="71.9" class="st0" width="3.3" height="33.1"/>
		<polygon class="st0" points="303,71.9 306.6,71.9 318.3,100.9 330,71.9 333.6,71.9 319.8,105 316.7,105 		"/>
		<polygon class="st0" points="338.7,71.9 356.8,71.9 356.8,74.9 342,74.9 342,86.8 356.4,86.8 356.4,89.8 342,89.8 342,102 
			356.8,102 356.8,105 338.7,105 		"/>
		<path class="st0" d="M364,71.9h7.9c3.1,0,6.6,0,9.4,1.6c3.4,1.9,5.2,5.3,5.2,9.2c0,5.4-4.4,9.8-9.8,9.9l9.3,12.4h-4.1l-11.3-15h1
			c2.3,0,5,0.1,7.2-0.9c2.7-1.3,4.3-3.8,4.3-6.7c0-2.3-1.2-4.6-3.1-5.9c-2.2-1.6-4.9-1.6-7.5-1.6h-5.2V105H364V71.9z"/>
		<path class="st0" d="M393.6,95.7c0.1,3.6,2.9,6.7,6.6,6.7c3.8,0,6.9-2.7,6.9-6.5c0-1.8-0.9-3.6-2.3-4.7c-1.5-1.3-3.2-1.7-5.1-2.2
			c-2.1-0.5-4.2-1.1-5.8-2.5c-1.8-1.6-2.8-3.8-2.8-6.2c0-5.3,4.2-8.9,9.4-8.9c5,0,9.2,3.9,9.1,9h-3.5c-0.2-3.4-2.6-5.8-6.1-5.8
			c-3.2,0-5.7,2.6-5.7,5.8c0,4,3.3,4.9,6.6,5.8c2.4,0.7,4.4,1.1,6.4,2.8c2,1.7,3.1,4.3,3.1,6.9c0,5.5-4.7,9.7-10.1,9.7
			c-5.7,0-10.3-4.1-10.3-9.9H393.6z"/>
		<rect x="416.1" y="71.9" class="st0" width="3.3" height="33.1"/>
		<polygon class="st0" points="432.1,74.9 424.4,74.9 424.4,71.9 442.9,71.9 442.9,74.9 435.4,74.9 435.4,105 432.1,105 		"/>
		<polygon class="st0" points="447.9,71.9 466,71.9 466,74.9 451.2,74.9 451.2,86.8 465.5,86.8 465.5,89.8 451.2,89.8 451.2,102 
			466,102 466,105 447.9,105 		"/>
		<rect x="473.2" y="71.9" class="st0" width="3.3" height="33.1"/>
		<polygon class="st0" points="489.1,74.9 481.5,74.9 481.5,71.9 500,71.9 500,74.9 492.5,74.9 492.5,105 489.1,105 		"/>
		<path class="st0" d="M229.4,119.4h7.8c2.6,0,5.3,0.2,7.5,1.7c2.4,1.6,3.9,4.3,3.9,7.1c0,2.9-1.4,5-3.7,6.6
			c3.5,1.4,5.5,4.5,5.5,8.3c0,3-1.5,6-4.1,7.6c-2.9,1.8-5.8,1.7-9.1,1.8h-7.8V119.4z M236.4,133.5c2.1,0,4.4,0,6.3-1
			c1.6-0.9,2.7-2.8,2.7-4.6c0-1.8-1.1-3.6-2.6-4.6c-1.7-1-4.1-1.1-6.1-1h-3.9v11.2H236.4z M236.8,149.5c2.2,0,5,0,7-1
			c1.9-1,3.3-3.2,3.2-5.3c0-2.8-1.6-5.1-4.1-6c-2.1-0.7-4.5-0.7-6.7-0.7h-3.5v13H236.8z"/>
		<path class="st0" d="M256.5,119.4h7.9c3.1,0,6.6,0,9.4,1.6c3.4,1.9,5.2,5.3,5.2,9.2c0,5.4-4.4,9.8-9.8,9.9l9.3,12.4h-4.1l-11.3-15
			h1c2.3,0,5,0.1,7.2-0.9c2.7-1.3,4.3-3.8,4.3-6.7c0-2.3-1.2-4.6-3.1-5.9c-2.2-1.6-4.9-1.6-7.5-1.6h-5.2v30.1h-3.3V119.4z"/>
		<path class="st0" d="M288.3,119.4v20.1c0,2.4,0.2,4.9,1.5,6.9c1.4,2.2,3.9,3.5,6.5,3.5c2.3,0,4.7-1.1,6.1-3
			c1.6-2.2,1.8-4.8,1.8-7.4v-20.1h3.3v20.1c0,3.4-0.3,6.6-2.5,9.4c-2.1,2.7-5.4,4.2-8.8,4.2c-3.3,0-6.6-1.4-8.7-3.9
			c-2.3-2.8-2.6-6.1-2.6-9.6v-20.1H288.3z"/>
		<path class="st0" d="M316.7,143.2c0.1,3.6,2.9,6.7,6.6,6.7c3.8,0,6.9-2.7,6.9-6.5c0-1.8-0.9-3.6-2.3-4.7c-1.5-1.3-3.2-1.7-5.1-2.2
			c-2.1-0.5-4.2-1.1-5.8-2.5c-1.8-1.6-2.8-3.8-2.8-6.2c0-5.3,4.2-8.9,9.4-8.9c5,0,9.2,3.9,9.1,9h-3.5c-0.2-3.4-2.6-5.8-6.1-5.8
			c-3.2,0-5.7,2.6-5.7,5.8c0,4,3.3,4.9,6.6,5.8c2.4,0.7,4.4,1.1,6.4,2.8c2,1.7,3.1,4.3,3.1,6.9c0,5.5-4.7,9.7-10.1,9.7
			c-5.7,0-10.3-4.1-10.3-9.9H316.7z"/>
		<path class="st0" d="M340.3,143.2c0.1,3.6,2.9,6.7,6.6,6.7c3.8,0,6.9-2.7,6.9-6.5c0-1.8-0.9-3.6-2.3-4.7c-1.5-1.3-3.2-1.7-5.1-2.2
			c-2.1-0.5-4.2-1.1-5.8-2.5c-1.8-1.6-2.8-3.8-2.8-6.2c0-5.3,4.2-8.9,9.4-8.9c5,0,9.2,3.9,9.1,9h-3.5c-0.2-3.4-2.6-5.8-6.1-5.8
			c-3.2,0-5.7,2.6-5.7,5.8c0,4,3.3,4.9,6.6,5.8c2.4,0.7,4.4,1.1,6.4,2.8c2,1.7,3.1,4.3,3.1,6.9c0,5.5-4.7,9.7-10.1,9.7
			c-5.7,0-10.3-4.1-10.3-9.9H340.3z"/>
		<polygon class="st0" points="362.8,119.4 380.9,119.4 380.9,122.4 366.1,122.4 366.1,134.3 380.5,134.3 380.5,137.3 366.1,137.3 
			366.1,149.5 380.9,149.5 380.9,152.5 362.8,152.5 		"/>
		<polygon class="st0" points="388.1,119.4 391.4,119.4 391.4,149.5 405.2,149.5 405.2,152.5 388.1,152.5 		"/>
		<path class="st1" d="M128.1,46.7h-15v56.5c-0.1,2.8-0.4,5.4-1.6,7.9c-2,3.6-5.8,6.1-10.2,6.6c-0.2,0-0.3,0-0.5,0
			c-0.4,0-0.8,0.1-1.2,0.1h0c-0.4,0-0.8,0-1.2-0.1c-0.2,0-0.3,0-0.5,0c-4.4-0.5-8.2-3.1-10.2-6.6c-1.3-2.5-1.6-5.2-1.6-7.9V46.7
			l-14.3,0l-4.7,0c-4.5,0-8.4,3-9.6,7.2c0,0.1-0.1,0.2-0.1,0.2l-18.6,54.4h-0.1L16.8,46.7V91l14.5,39.2h15.1l24.4-67.4l0.2-0.5h0.1
			V100c0,6,0.4,11.7,2.8,16.9c4.4,8.8,13.6,14.9,24.4,15.3c0.4,0,0.8,0,1.2,0h0c0.4,0,0.8,0,1.2,0c10.8-0.4,20-6.6,24.4-15.3
			c2.4-5.2,2.8-10.9,2.8-16.9V46.7z"/>
	</g>
</g>
</svg>
